<svg id="Layer_1" data-name="Layer 1" xmlns="http://www.w3.org/2000/svg" viewBox="0 0 72 72"><defs><style>.cls-1{font-size:11.57px;fill:#b0484b;font-family:TimesNewRomanPS-BoldMT, Times New Roman;font-weight:700;}.cls-2{fill:#5290b1;}</style></defs><title>metrodroid_Artboard 1</title><text class="cls-1" transform="translate(6.25 52)">City Union</text><polygon class="cls-2" points="30.03 11.81 17.55 20.33 24.54 30.05 42.83 17.33 37.9 15.4 25.85 24.19 23.71 21.59 34.34 13.8 30.03 11.81"/><polygon class="cls-2" points="43.37 18.51 42.83 18.89 25.15 31.55 32.63 41.84 43.66 33.83 43.66 32.47 33.08 39.96 27.16 32.06 43.53 20.09 43.53 18.35 43.37 18.51"/><polygon class="cls-2" points="43.24 21.02 41.79 22.07 28.5 31.88 33.3 38.46 43.66 31.23 43.66 29.8 33.51 36.7 30 32.06 43.66 22.26 43.66 20.68 43.24 21.02"/><polygon class="cls-2" points="43.66 23.2 31.18 32.25 33.62 35.52 43.66 28.59 43.66 26.93 34.05 33.78 33 32.33 43.66 24.8 43.66 23.2"/></svg>