<?xml version="1.0" encoding="UTF-8" standalone="no"?>
<svg
   xmlns:dc="http://purl.org/dc/elements/1.1/"
   xmlns:cc="http://creativecommons.org/ns#"
   xmlns:rdf="http://www.w3.org/1999/02/22-rdf-syntax-ns#"
   xmlns:svg="http://www.w3.org/2000/svg"
   xmlns="http://www.w3.org/2000/svg"
   xmlns:sodipodi="http://sodipodi.sourceforge.net/DTD/sodipodi-0.dtd"
   xmlns:inkscape="http://www.inkscape.org/namespaces/inkscape"
   width="227pt"
   height="86pt"
   viewBox="0 0 227 86"
   version="1.2"
   id="svg43"
   sodipodi:docname="Logo_InterCard_cmyk_2015.svg"
   inkscape:version="0.92.1 r15371">
  <metadata
     id="metadata49">
    <rdf:RDF>
      <cc:Work
         rdf:about="">
        <dc:format>image/svg+xml</dc:format>
        <dc:type
           rdf:resource="http://purl.org/dc/dcmitype/StillImage" />
        <dc:title></dc:title>
      </cc:Work>
    </rdf:RDF>
  </metadata>
  <defs
     id="defs47" />
  <sodipodi:namedview
     pagecolor="#ffffff"
     bordercolor="#666666"
     borderopacity="1"
     objecttolerance="10"
     gridtolerance="10"
     guidetolerance="10"
     inkscape:pageopacity="0"
     inkscape:pageshadow="2"
     inkscape:window-width="2400"
     inkscape:window-height="1424"
     id="namedview45"
     showgrid="false"
     inkscape:zoom="1.8964758"
     inkscape:cx="152.38792"
     inkscape:cy="57.333333"
     inkscape:window-x="0"
     inkscape:window-y="88"
     inkscape:window-maximized="1"
     inkscape:current-layer="svg43" />
  <g
     id="surface651">
    <path
       style=" stroke:none;fill-rule:evenodd;fill:rgb(71.04187%,11.553955%,28.323364%);fill-opacity:1;"
       d="M 21.875 50.824219 L 21.875 51.71875 L 7.777344 51.71875 L 7.777344 50.824219 L 8.945312 50.824219 C 10.300781 50.824219 11.289062 50.425781 11.898438 49.632812 C 12.289062 49.117188 12.488281 47.867188 12.488281 45.898438 L 12.488281 24.652344 C 12.488281 22.988281 12.378906 21.886719 12.171875 21.355469 C 12.007812 20.949219 11.675781 20.601562 11.179688 20.3125 C 10.46875 19.921875 9.722656 19.734375 8.945312 19.734375 L 7.777344 19.734375 L 7.777344 18.832031 L 21.875 18.832031 L 21.875 19.734375 L 20.683594 19.734375 C 19.34375 19.734375 18.363281 20.132812 17.753906 20.917969 C 17.347656 21.4375 17.140625 22.679688 17.140625 24.652344 L 17.140625 45.898438 C 17.140625 47.5625 17.246094 48.664062 17.453125 49.195312 C 17.621094 49.597656 17.960938 49.945312 18.472656 50.238281 C 19.167969 50.625 19.90625 50.824219 20.683594 50.824219 L 21.875 50.824219 "
       id="path2" />
    <path
       style=" stroke:none;fill-rule:evenodd;fill:rgb(71.04187%,11.553955%,28.323364%);fill-opacity:1;"
       d="M 31.113281 33.558594 C 33.710938 30.417969 36.195312 28.847656 38.554688 28.847656 C 39.769531 28.847656 40.8125 29.152344 41.683594 29.757812 C 42.558594 30.363281 43.253906 31.363281 43.769531 32.753906 C 44.125 33.722656 44.296875 35.214844 44.296875 37.214844 L 44.296875 46.703125 C 44.296875 48.101562 44.414062 49.0625 44.644531 49.558594 C 44.820312 49.964844 45.109375 50.277344 45.507812 50.511719 C 45.894531 50.734375 46.632812 50.847656 47.699219 50.847656 L 47.699219 51.71875 L 36.707031 51.71875 L 36.707031 50.847656 L 37.171875 50.847656 C 38.207031 50.847656 38.933594 50.683594 39.339844 50.367188 C 39.753906 50.054688 40.042969 49.589844 40.199219 48.976562 C 40.265625 48.738281 40.300781 47.976562 40.300781 46.703125 L 40.300781 37.605469 C 40.300781 35.585938 40.035156 34.121094 39.515625 33.203125 C 38.984375 32.289062 38.097656 31.835938 36.855469 31.835938 C 34.9375 31.835938 33.015625 32.886719 31.113281 34.988281 L 31.113281 46.703125 C 31.113281 48.199219 31.195312 49.128906 31.378906 49.484375 C 31.601562 49.957031 31.914062 50.300781 32.3125 50.519531 C 32.710938 50.734375 33.511719 50.847656 34.722656 50.847656 L 34.722656 51.71875 L 23.738281 51.71875 L 23.738281 50.847656 L 24.226562 50.847656 C 25.351562 50.847656 26.121094 50.558594 26.519531 49.988281 C 26.90625 49.410156 27.105469 48.316406 27.105469 46.703125 L 27.105469 38.449219 C 27.105469 35.785156 27.046875 34.160156 26.921875 33.582031 C 26.808594 32.992188 26.617188 32.597656 26.367188 32.390625 C 26.121094 32.183594 25.78125 32.074219 25.359375 32.074219 C 24.914062 32.074219 24.367188 32.199219 23.738281 32.441406 L 23.371094 31.5625 L 30.070312 28.847656 L 31.113281 28.847656 L 31.113281 33.558594 "
       id="path4" />
    <path
       style=" stroke:none;fill-rule:evenodd;fill:rgb(71.04187%,11.553955%,28.323364%);fill-opacity:1;"
       d="M 55.921875 22.207031 L 55.921875 29.5 L 61.109375 29.5 L 61.109375 31.199219 L 55.921875 31.199219 L 55.921875 45.609375 C 55.921875 47.050781 56.128906 48.019531 56.542969 48.515625 C 56.945312 49.019531 57.476562 49.269531 58.121094 49.269531 C 58.660156 49.269531 59.171875 49.101562 59.679688 48.773438 C 60.175781 48.441406 60.5625 47.953125 60.84375 47.304688 L 61.789062 47.304688 C 61.21875 48.886719 60.421875 50.078125 59.390625 50.882812 C 58.355469 51.683594 57.285156 52.082031 56.183594 52.082031 C 55.441406 52.082031 54.710938 51.875 54 51.460938 C 53.289062 51.046875 52.765625 50.460938 52.425781 49.691406 C 52.089844 48.929688 51.914062 47.746094 51.914062 46.140625 L 51.914062 31.199219 L 48.40625 31.199219 L 48.40625 30.402344 C 49.289062 30.046875 50.199219 29.445312 51.128906 28.597656 C 52.054688 27.746094 52.890625 26.734375 53.609375 25.578125 C 53.984375 24.964844 54.503906 23.839844 55.167969 22.207031 L 55.921875 22.207031 "
       id="path6" />
    <path
       style=" stroke:none;fill-rule:evenodd;fill:rgb(71.04187%,11.553955%,28.323364%);fill-opacity:1;"
       d="M 67.003906 37.871094 C 66.988281 41.171875 67.78125 43.753906 69.40625 45.632812 C 71.019531 47.503906 72.921875 48.441406 75.097656 48.441406 C 76.554688 48.441406 77.824219 48.042969 78.898438 47.238281 C 79.976562 46.445312 80.867188 45.070312 81.597656 43.132812 L 82.351562 43.613281 C 82.011719 45.832031 81.027344 47.851562 79.394531 49.664062 C 77.757812 51.484375 75.710938 52.398438 73.261719 52.398438 C 70.589844 52.398438 68.304688 51.363281 66.40625 49.285156 C 64.503906 47.207031 63.558594 44.410156 63.558594 40.898438 C 63.558594 37.101562 64.527344 34.136719 66.484375 32.019531 C 68.425781 29.890625 70.871094 28.824219 73.816406 28.824219 C 76.308594 28.824219 78.351562 29.640625 79.949219 31.289062 C 81.546875 32.925781 82.351562 35.121094 82.351562 37.871094 Z M 67.003906 36.460938 L 77.285156 36.460938 C 77.203125 35.039062 77.035156 34.035156 76.773438 33.457031 C 76.375 32.554688 75.769531 31.84375 74.96875 31.324219 C 74.164062 30.808594 73.328125 30.542969 72.460938 30.542969 C 71.117188 30.542969 69.917969 31.066406 68.859375 32.109375 C 67.796875 33.152344 67.179688 34.609375 67.003906 36.460938 "
       id="path8" />
    <path
       style=" stroke:none;fill-rule:evenodd;fill:rgb(71.04187%,11.553955%,28.323364%);fill-opacity:1;"
       d="M 91.8125 28.847656 L 91.8125 33.847656 C 93.664062 30.511719 95.578125 28.847656 97.53125 28.847656 C 98.417969 28.847656 99.15625 29.121094 99.742188 29.660156 C 100.320312 30.203125 100.609375 30.835938 100.609375 31.539062 C 100.609375 32.175781 100.402344 32.703125 99.980469 33.144531 C 99.558594 33.582031 99.0625 33.796875 98.476562 33.796875 C 97.914062 33.796875 97.273438 33.515625 96.570312 32.960938 C 95.867188 32.40625 95.347656 32.125 95.007812 32.125 C 94.71875 32.125 94.402344 32.28125 94.0625 32.605469 C 93.335938 33.265625 92.582031 34.359375 91.8125 35.882812 L 91.8125 46.527344 C 91.8125 47.753906 91.960938 48.6875 92.265625 49.316406 C 92.480469 49.757812 92.855469 50.121094 93.386719 50.410156 C 93.921875 50.699219 94.683594 50.847656 95.6875 50.847656 L 95.6875 51.71875 L 84.3125 51.71875 L 84.3125 50.847656 C 85.445312 50.847656 86.289062 50.667969 86.835938 50.3125 C 87.242188 50.054688 87.523438 49.640625 87.691406 49.078125 C 87.765625 48.796875 87.804688 48.019531 87.804688 46.71875 L 87.804688 38.109375 C 87.804688 35.527344 87.757812 33.988281 87.648438 33.492188 C 87.546875 33.003906 87.351562 32.636719 87.070312 32.414062 C 86.789062 32.191406 86.429688 32.074219 86.007812 32.074219 C 85.511719 32.074219 84.949219 32.199219 84.3125 32.441406 L 84.074219 31.5625 L 90.792969 28.847656 L 91.8125 28.847656 "
       id="path10" />
    <path
       style=" stroke:none;fill-rule:evenodd;fill:rgb(71.04187%,11.553955%,28.323364%);fill-opacity:1;"
       d="M 130.195312 18.085938 L 130.949219 29.261719 L 130.195312 29.261719 C 129.191406 25.917969 127.761719 23.507812 125.90625 22.035156 C 124.046875 20.5625 121.816406 19.824219 119.210938 19.824219 C 117.023438 19.824219 115.054688 20.378906 113.292969 21.488281 C 111.527344 22.597656 110.148438 24.359375 109.136719 26.785156 C 108.128906 29.210938 107.621094 32.234375 107.621094 35.832031 C 107.621094 38.804688 108.09375 41.386719 109.054688 43.574219 C 110.007812 45.75 111.4375 47.421875 113.359375 48.589844 C 115.269531 49.757812 117.457031 50.335938 119.914062 50.335938 C 122.050781 50.335938 123.929688 49.878906 125.566406 48.960938 C 127.199219 48.050781 128.996094 46.238281 130.949219 43.523438 L 131.703125 44.003906 C 130.054688 46.933594 128.125 49.078125 125.933594 50.433594 C 123.730469 51.792969 121.121094 52.472656 118.09375 52.472656 C 112.644531 52.472656 108.425781 50.453125 105.4375 46.402344 C 103.210938 43.398438 102.09375 39.855469 102.09375 35.785156 C 102.09375 32.507812 102.828125 29.484375 104.296875 26.734375 C 105.769531 23.988281 107.796875 21.859375 110.371094 20.347656 C 112.953125 18.839844 115.765625 18.085938 118.820312 18.085938 C 121.195312 18.085938 123.546875 18.664062 125.859375 19.824219 C 126.535156 20.179688 127.023438 20.363281 127.3125 20.363281 C 127.746094 20.363281 128.125 20.207031 128.449219 19.898438 C 128.871094 19.46875 129.167969 18.855469 129.351562 18.085938 L 130.195312 18.085938 "
       id="path12" />
    <path
       style=" stroke:none;fill-rule:evenodd;fill:rgb(71.04187%,11.553955%,28.323364%);fill-opacity:1;"
       d="M 147.5625 48.515625 C 145.285156 50.277344 143.851562 51.296875 143.265625 51.570312 C 142.394531 51.972656 141.46875 52.179688 140.484375 52.179688 C 138.945312 52.179688 137.679688 51.652344 136.683594 50.601562 C 135.691406 49.550781 135.195312 48.167969 135.195312 46.453125 C 135.195312 45.367188 135.433594 44.433594 135.921875 43.640625 C 136.585938 42.546875 137.734375 41.511719 139.375 40.535156 C 141.015625 39.566406 143.746094 38.390625 147.5625 37 L 147.5625 36.121094 C 147.5625 33.914062 147.214844 32.390625 146.511719 31.5625 C 145.808594 30.742188 144.78125 30.328125 143.4375 30.328125 C 142.421875 30.328125 141.609375 30.601562 141.015625 31.15625 C 140.402344 31.703125 140.09375 32.332031 140.09375 33.042969 L 140.144531 34.449219 C 140.144531 35.195312 139.953125 35.765625 139.574219 36.171875 C 139.191406 36.578125 138.695312 36.777344 138.085938 36.777344 C 137.480469 36.777344 136.992188 36.570312 136.609375 36.148438 C 136.230469 35.726562 136.039062 35.15625 136.039062 34.425781 C 136.039062 33.035156 136.75 31.761719 138.175781 30.59375 C 139.597656 29.433594 141.59375 28.847656 144.167969 28.847656 C 146.136719 28.847656 147.753906 29.179688 149.019531 29.839844 C 149.96875 30.34375 150.675781 31.132812 151.128906 32.199219 C 151.417969 32.894531 151.558594 34.308594 151.558594 36.460938 L 151.558594 44.003906 C 151.558594 46.121094 151.601562 47.421875 151.683594 47.902344 C 151.765625 48.375 151.898438 48.695312 152.082031 48.855469 C 152.269531 49.019531 152.488281 49.101562 152.726562 49.101562 C 152.984375 49.101562 153.214844 49.042969 153.40625 48.929688 C 153.746094 48.722656 154.398438 48.125 155.367188 47.15625 L 155.367188 48.515625 C 153.5625 50.941406 151.832031 52.15625 150.175781 52.15625 C 149.390625 52.15625 148.761719 51.882812 148.289062 51.328125 C 147.816406 50.78125 147.578125 49.839844 147.5625 48.515625 Z M 147.5625 46.941406 L 147.5625 38.472656 C 145.121094 39.449219 143.546875 40.136719 142.835938 40.535156 C 141.550781 41.246094 140.640625 41.992188 140.09375 42.769531 C 139.539062 43.546875 139.269531 44.394531 139.269531 45.320312 C 139.269531 46.476562 139.613281 47.449219 140.3125 48.21875 C 141.007812 48.976562 141.808594 49.367188 142.710938 49.367188 C 143.945312 49.367188 145.558594 48.554688 147.5625 46.941406 "
       id="path14" />
    <path
       style=" stroke:none;fill-rule:evenodd;fill:rgb(71.04187%,11.553955%,28.323364%);fill-opacity:1;"
       d="M 163.519531 28.847656 L 163.519531 33.847656 C 165.375 30.511719 167.285156 28.847656 169.242188 28.847656 C 170.125 28.847656 170.863281 29.121094 171.449219 29.660156 C 172.03125 30.203125 172.320312 30.835938 172.320312 31.539062 C 172.320312 32.175781 172.113281 32.703125 171.691406 33.144531 C 171.269531 33.582031 170.773438 33.796875 170.183594 33.796875 C 169.621094 33.796875 168.984375 33.515625 168.28125 32.960938 C 167.578125 32.40625 167.054688 32.125 166.714844 32.125 C 166.425781 32.125 166.113281 32.28125 165.773438 32.605469 C 165.042969 33.265625 164.289062 34.359375 163.519531 35.882812 L 163.519531 46.527344 C 163.519531 47.753906 163.671875 48.6875 163.976562 49.316406 C 164.191406 49.757812 164.5625 50.121094 165.09375 50.410156 C 165.632812 50.699219 166.394531 50.847656 167.394531 50.847656 L 167.394531 51.71875 L 156.019531 51.71875 L 156.019531 50.847656 C 157.15625 50.847656 158 50.667969 158.546875 50.3125 C 158.953125 50.054688 159.234375 49.640625 159.398438 49.078125 C 159.472656 48.796875 159.515625 48.019531 159.515625 46.71875 L 159.515625 38.109375 C 159.515625 35.527344 159.464844 33.988281 159.355469 33.492188 C 159.257812 33.003906 159.058594 32.636719 158.777344 32.414062 C 158.496094 32.191406 158.140625 32.074219 157.71875 32.074219 C 157.222656 32.074219 156.65625 32.199219 156.019531 32.441406 L 155.78125 31.5625 L 162.503906 28.847656 L 163.519531 28.847656 "
       id="path16" />
    <path
       style=" stroke:none;fill-rule:evenodd;fill:rgb(71.04187%,11.553955%,28.323364%);fill-opacity:1;"
       d="M 189.246094 49.21875 C 188.164062 50.351562 187.105469 51.164062 186.070312 51.660156 C 185.035156 52.148438 183.917969 52.398438 182.726562 52.398438 C 180.300781 52.398438 178.179688 51.378906 176.367188 49.351562 C 174.5625 47.324219 173.652344 44.714844 173.652344 41.535156 C 173.652344 38.351562 174.652344 35.4375 176.664062 32.785156 C 178.667969 30.148438 181.242188 28.824219 184.394531 28.824219 C 186.351562 28.824219 187.972656 29.453125 189.246094 30.695312 L 189.246094 26.59375 C 189.246094 24.054688 189.1875 22.5 189.066406 21.910156 C 188.941406 21.332031 188.75 20.933594 188.492188 20.726562 C 188.238281 20.511719 187.914062 20.414062 187.527344 20.414062 C 187.105469 20.414062 186.550781 20.535156 185.855469 20.800781 L 185.539062 19.949219 L 192.160156 17.234375 L 193.246094 17.234375 L 193.246094 42.917969 C 193.246094 45.519531 193.3125 47.105469 193.425781 47.679688 C 193.550781 48.257812 193.742188 48.65625 194.015625 48.878906 C 194.28125 49.109375 194.59375 49.21875 194.941406 49.21875 C 195.382812 49.21875 195.96875 49.085938 196.6875 48.804688 L 196.960938 49.65625 L 190.363281 52.398438 L 189.246094 52.398438 Z M 189.246094 47.523438 L 189.246094 36.074219 C 189.148438 34.980469 188.859375 33.972656 188.378906 33.070312 C 187.890625 32.167969 187.242188 31.480469 186.449219 31.023438 C 185.644531 30.558594 184.867188 30.328125 184.105469 30.328125 C 182.683594 30.328125 181.417969 30.964844 180.300781 32.242188 C 178.824219 33.929688 178.089844 36.378906 178.089844 39.617188 C 178.089844 42.886719 178.800781 45.386719 180.226562 47.125 C 181.648438 48.863281 183.230469 49.730469 184.976562 49.730469 C 186.449219 49.730469 187.871094 48.996094 189.246094 47.523438 "
       id="path18" />
    <path
       style=" stroke:none;fill-rule:evenodd;fill:rgb(56.864929%,56.079102%,56.274414%);fill-opacity:1;"
       d="M 114.527344 70.425781 C 114.527344 69.929688 114.445312 69.511719 114.28125 69.164062 C 114.117188 68.816406 113.882812 68.515625 113.578125 68.265625 C 113.273438 68.011719 112.902344 67.796875 112.464844 67.617188 C 112.03125 67.4375 111.539062 67.265625 110.992188 67.097656 C 110.519531 66.960938 110.121094 66.828125 109.808594 66.703125 C 109.492188 66.574219 109.246094 66.445312 109.066406 66.316406 C 108.886719 66.183594 108.761719 66.042969 108.6875 65.890625 C 108.613281 65.734375 108.578125 65.566406 108.578125 65.375 C 108.578125 65.007812 108.722656 64.6875 109.011719 64.414062 C 109.300781 64.140625 109.769531 64.003906 110.421875 64.003906 C 110.96875 64.003906 111.449219 64.089844 111.859375 64.261719 C 112.269531 64.4375 112.648438 64.703125 112.996094 65.058594 L 114.164062 63.875 C 113.667969 63.402344 113.132812 63.035156 112.554688 62.773438 C 111.976562 62.507812 111.308594 62.378906 110.550781 62.378906 C 110.046875 62.378906 109.566406 62.449219 109.121094 62.589844 C 108.675781 62.734375 108.289062 62.933594 107.960938 63.199219 C 107.636719 63.460938 107.378906 63.785156 107.1875 64.167969 C 107 64.550781 106.902344 64.980469 106.902344 65.453125 C 106.902344 65.949219 106.976562 66.363281 107.117188 66.703125 C 107.257812 67.039062 107.472656 67.324219 107.757812 67.5625 C 108.039062 67.796875 108.398438 68.007812 108.828125 68.183594 C 109.261719 68.363281 109.769531 68.535156 110.359375 68.707031 C 110.824219 68.84375 111.210938 68.972656 111.527344 69.101562 C 111.84375 69.226562 112.101562 69.359375 112.300781 69.503906 C 112.5 69.644531 112.644531 69.800781 112.726562 69.96875 C 112.8125 70.136719 112.851562 70.324219 112.851562 70.535156 C 112.851562 71.609375 112.089844 72.144531 110.566406 72.144531 C 110.039062 72.144531 109.519531 72.027344 109.011719 71.789062 C 108.5 71.554688 108.0625 71.234375 107.691406 70.835938 L 106.507812 71.988281 C 106.984375 72.535156 107.554688 72.96875 108.222656 73.289062 C 108.890625 73.609375 109.628906 73.769531 110.4375 73.769531 C 111.144531 73.769531 111.753906 73.691406 112.269531 73.527344 C 112.785156 73.363281 113.207031 73.136719 113.539062 72.839844 C 113.871094 72.546875 114.117188 72.191406 114.28125 71.78125 C 114.445312 71.371094 114.527344 70.917969 114.527344 70.425781 "
       id="path20" />
    <path
       style=" stroke:none;fill-rule:evenodd;fill:rgb(56.864929%,56.079102%,56.274414%);fill-opacity:1;"
       d="M 118.738281 73.597656 L 118.738281 62.550781 L 117.082031 62.550781 L 117.082031 73.597656 L 118.738281 73.597656 "
       id="path22" />
    <path
       style=" stroke:none;fill-rule:evenodd;fill:rgb(56.864929%,56.079102%,56.274414%);fill-opacity:1;"
       d="M 131.566406 73.597656 L 131.566406 62.550781 L 129.800781 62.550781 L 127.371094 68.4375 C 127.234375 68.761719 127.097656 69.101562 126.960938 69.457031 C 126.824219 69.808594 126.714844 70.097656 126.628906 70.332031 C 126.554688 70.097656 126.445312 69.804688 126.296875 69.449219 C 126.148438 69.089844 126.007812 68.753906 125.871094 68.4375 L 123.394531 62.550781 L 121.691406 62.550781 L 121.691406 73.597656 L 123.253906 73.597656 L 123.253906 67.757812 C 123.253906 67.589844 123.253906 67.410156 123.253906 67.222656 C 123.253906 67.03125 123.25 66.847656 123.246094 66.660156 C 123.238281 66.476562 123.234375 66.3125 123.230469 66.164062 C 123.222656 66.019531 123.222656 65.902344 123.222656 65.816406 C 123.285156 65.976562 123.382812 66.226562 123.519531 66.566406 C 123.65625 66.910156 123.796875 67.238281 123.929688 67.554688 L 126.582031 73.769531 L 129.265625 67.554688 C 129.402344 67.238281 129.539062 66.910156 129.675781 66.566406 C 129.8125 66.226562 129.910156 65.976562 129.976562 65.816406 C 129.976562 65.902344 129.972656 66.019531 129.96875 66.164062 C 129.960938 66.3125 129.957031 66.476562 129.949219 66.660156 C 129.945312 66.847656 129.941406 67.03125 129.941406 67.222656 C 129.941406 67.410156 129.941406 67.589844 129.941406 67.757812 L 129.941406 73.597656 L 131.566406 73.597656 "
       id="path24" />
    <path
       style=" stroke:none;fill-rule:evenodd;fill:rgb(56.864929%,56.079102%,56.274414%);fill-opacity:1;"
       d="M 142.613281 66.007812 C 142.613281 65.4375 142.523438 64.9375 142.347656 64.507812 C 142.167969 64.078125 141.921875 63.714844 141.605469 63.425781 C 141.289062 63.136719 140.914062 62.917969 140.476562 62.773438 C 140.039062 62.625 139.570312 62.550781 139.0625 62.550781 L 134.441406 62.550781 L 134.441406 73.597656 L 136.066406 73.597656 L 136.066406 69.480469 L 138.953125 69.480469 C 139.488281 69.480469 139.980469 69.40625 140.429688 69.257812 C 140.875 69.109375 141.261719 68.890625 141.589844 68.59375 C 141.914062 68.300781 142.167969 67.9375 142.347656 67.507812 C 142.523438 67.074219 142.613281 66.574219 142.613281 66.007812 Z M 140.925781 66.007812 C 140.925781 66.605469 140.769531 67.074219 140.453125 67.410156 C 140.136719 67.75 139.664062 67.917969 139.03125 67.917969 L 136.066406 67.917969 L 136.066406 64.113281 L 139.03125 64.113281 C 139.609375 64.113281 140.070312 64.277344 140.414062 64.601562 C 140.753906 64.929688 140.925781 65.398438 140.925781 66.007812 "
       id="path26" />
    <path
       style=" stroke:none;fill-rule:evenodd;fill:rgb(56.864929%,56.079102%,56.274414%);fill-opacity:1;"
       d="M 151.910156 73.597656 L 151.910156 71.972656 L 146.402344 71.972656 L 146.402344 62.550781 L 144.746094 62.550781 L 144.746094 73.597656 L 151.910156 73.597656 "
       id="path28" />
    <path
       style=" stroke:none;fill-rule:evenodd;fill:rgb(56.864929%,56.079102%,56.274414%);fill-opacity:1;"
       d="M 160.636719 62.550781 L 158.726562 62.550781 L 156.992188 65.613281 C 156.894531 65.792969 156.789062 65.984375 156.675781 66.195312 C 156.558594 66.40625 156.449219 66.613281 156.34375 66.8125 C 156.238281 67.011719 156.140625 67.199219 156.050781 67.371094 C 155.960938 67.546875 155.894531 67.683594 155.855469 67.789062 C 155.800781 67.683594 155.734375 67.542969 155.648438 67.363281 C 155.566406 67.183594 155.46875 66.992188 155.355469 66.789062 C 155.246094 66.582031 155.136719 66.375 155.027344 66.164062 C 154.914062 65.953125 154.8125 65.765625 154.71875 65.597656 L 152.996094 62.550781 L 151.058594 62.550781 L 155.019531 69.226562 L 155.019531 73.597656 L 156.675781 73.597656 L 156.675781 69.226562 L 160.636719 62.550781 "
       id="path30" />
    <path
       style=" stroke:none;fill-rule:evenodd;fill:rgb(56.864929%,56.079102%,56.274414%);fill-opacity:1;"
       d="M 174.378906 70.425781 C 174.378906 69.929688 174.300781 69.511719 174.136719 69.164062 C 173.972656 68.816406 173.738281 68.515625 173.433594 68.265625 C 173.128906 68.011719 172.757812 67.796875 172.320312 67.617188 C 171.882812 67.4375 171.394531 67.265625 170.847656 67.097656 C 170.371094 66.960938 169.976562 66.828125 169.660156 66.703125 C 169.347656 66.574219 169.097656 66.445312 168.921875 66.316406 C 168.742188 66.183594 168.613281 66.042969 168.539062 65.890625 C 168.46875 65.734375 168.429688 65.566406 168.429688 65.375 C 168.429688 65.007812 168.574219 64.6875 168.863281 64.414062 C 169.152344 64.140625 169.625 64.003906 170.277344 64.003906 C 170.824219 64.003906 171.304688 64.089844 171.714844 64.261719 C 172.125 64.4375 172.503906 64.703125 172.851562 65.058594 L 174.019531 63.875 C 173.523438 63.402344 172.984375 63.035156 172.40625 62.773438 C 171.828125 62.507812 171.160156 62.378906 170.402344 62.378906 C 169.898438 62.378906 169.421875 62.449219 168.976562 62.589844 C 168.527344 62.734375 168.140625 62.933594 167.816406 63.199219 C 167.488281 63.460938 167.230469 63.785156 167.042969 64.167969 C 166.851562 64.550781 166.757812 64.980469 166.757812 65.453125 C 166.757812 65.949219 166.828125 66.363281 166.972656 66.703125 C 167.113281 67.039062 167.324219 67.324219 167.609375 67.5625 C 167.894531 67.796875 168.253906 68.007812 168.683594 68.183594 C 169.113281 68.363281 169.625 68.535156 170.214844 68.707031 C 170.675781 68.84375 171.066406 68.972656 171.382812 69.101562 C 171.699219 69.226562 171.953125 69.359375 172.15625 69.503906 C 172.355469 69.644531 172.496094 69.800781 172.582031 69.96875 C 172.664062 70.136719 172.707031 70.324219 172.707031 70.535156 C 172.707031 71.609375 171.945312 72.144531 170.421875 72.144531 C 169.894531 72.144531 169.375 72.027344 168.863281 71.789062 C 168.355469 71.554688 167.914062 71.234375 167.546875 70.835938 L 166.363281 71.988281 C 166.839844 72.535156 167.40625 72.96875 168.074219 73.289062 C 168.742188 73.609375 169.484375 73.769531 170.292969 73.769531 C 170.996094 73.769531 171.609375 73.691406 172.125 73.527344 C 172.640625 73.363281 173.0625 73.136719 173.394531 72.839844 C 173.726562 72.546875 173.972656 72.191406 174.136719 71.78125 C 174.300781 71.371094 174.378906 70.917969 174.378906 70.425781 "
       id="path32" />
    <path
       style=" stroke:none;fill-rule:evenodd;fill:rgb(56.864929%,56.079102%,56.274414%);fill-opacity:1;"
       d="M 186.734375 73.597656 L 186.734375 62.550781 L 184.96875 62.550781 L 182.539062 68.4375 C 182.402344 68.761719 182.265625 69.101562 182.128906 69.457031 C 181.992188 69.808594 181.882812 70.097656 181.796875 70.332031 C 181.722656 70.097656 181.613281 69.804688 181.464844 69.449219 C 181.316406 69.089844 181.175781 68.753906 181.039062 68.4375 L 178.5625 62.550781 L 176.859375 62.550781 L 176.859375 73.597656 L 178.421875 73.597656 L 178.421875 67.757812 C 178.421875 67.589844 178.421875 67.410156 178.421875 67.222656 C 178.421875 67.03125 178.417969 66.847656 178.414062 66.660156 C 178.40625 66.476562 178.402344 66.3125 178.394531 66.164062 C 178.390625 66.019531 178.390625 65.902344 178.390625 65.816406 C 178.453125 65.976562 178.550781 66.226562 178.6875 66.566406 C 178.824219 66.910156 178.960938 67.238281 179.097656 67.554688 L 181.75 73.769531 L 184.433594 67.554688 C 184.570312 67.238281 184.707031 66.910156 184.84375 66.566406 C 184.980469 66.226562 185.078125 65.976562 185.140625 65.816406 C 185.144531 65.902344 185.140625 66.019531 185.132812 66.164062 C 185.128906 66.3125 185.125 66.476562 185.117188 66.660156 C 185.113281 66.847656 185.109375 67.03125 185.109375 67.222656 C 185.109375 67.410156 185.109375 67.589844 185.109375 67.757812 L 185.109375 73.597656 L 186.734375 73.597656 "
       id="path34" />
    <path
       style=" stroke:none;fill-rule:evenodd;fill:rgb(56.864929%,56.079102%,56.274414%);fill-opacity:1;"
       d="M 198.664062 73.597656 L 194.640625 62.550781 L 192.890625 62.550781 L 188.914062 73.597656 L 190.632812 73.597656 L 191.550781 70.976562 L 195.96875 70.976562 L 196.898438 73.597656 Z M 195.464844 69.496094 L 192.054688 69.496094 L 192.9375 66.96875 C 193.011719 66.769531 193.089844 66.542969 193.167969 66.289062 C 193.246094 66.039062 193.320312 65.792969 193.394531 65.558594 C 193.46875 65.320312 193.539062 65.097656 193.601562 64.894531 C 193.664062 64.691406 193.710938 64.527344 193.742188 64.414062 C 193.773438 64.527344 193.824219 64.691406 193.890625 64.894531 C 193.960938 65.097656 194.035156 65.324219 194.113281 65.566406 C 194.191406 65.808594 194.273438 66.050781 194.359375 66.289062 C 194.441406 66.53125 194.515625 66.753906 194.578125 66.953125 L 195.464844 69.496094 "
       id="path36" />
    <path
       style=" stroke:none;fill-rule:evenodd;fill:rgb(56.864929%,56.079102%,56.274414%);fill-opacity:1;"
       d="M 209.238281 65.847656 C 209.238281 65.28125 209.144531 64.789062 208.953125 64.375 C 208.765625 63.957031 208.507812 63.617188 208.183594 63.347656 C 207.855469 63.082031 207.480469 62.878906 207.054688 62.75 C 206.628906 62.617188 206.171875 62.550781 205.6875 62.550781 L 200.84375 62.550781 L 200.84375 73.597656 L 202.46875 73.597656 L 202.46875 69.226562 L 204.964844 69.226562 L 207.15625 73.597656 L 209.066406 73.597656 L 206.808594 69.085938 C 207.566406 68.894531 208.160156 68.53125 208.59375 67.996094 C 209.023438 67.460938 209.238281 66.742188 209.238281 65.847656 Z M 207.566406 65.898438 C 207.566406 66.496094 207.390625 66.941406 207.046875 67.230469 C 206.699219 67.519531 206.246094 67.664062 205.6875 67.664062 L 202.46875 67.664062 L 202.46875 64.113281 L 205.6875 64.113281 C 206.257812 64.113281 206.710938 64.265625 207.054688 64.570312 C 207.394531 64.875 207.566406 65.316406 207.566406 65.898438 "
       id="path38" />
    <path
       style=" stroke:none;fill-rule:evenodd;fill:rgb(56.864929%,56.079102%,56.274414%);fill-opacity:1;"
       d="M 218.832031 64.175781 L 218.832031 62.550781 L 210.738281 62.550781 L 210.738281 64.175781 L 213.957031 64.175781 L 213.957031 73.597656 L 215.613281 73.597656 L 215.613281 64.175781 L 218.832031 64.175781 "
       id="path40" />
  </g>
</svg>
