<svg xmlns="http://www.w3.org/2000/svg" xmlns:xlink="http://www.w3.org/1999/xlink" width="108.666" height="95.594" viewBox="0 0 108.666 95.594">
  <defs>
    <clipPath id="clip-path">
      <rect id="Rectangle_460" data-name="Rectangle 460" width="108.666" height="95.594" fill="none"/>
    </clipPath>
  </defs>
  <g id="Group_1318" data-name="Group 1318" clip-path="url(#clip-path)">
    <path id="Path_3631" data-name="Path 3631" d="M165.2,29.5c0-.31-.007-.607-.021-.911a28.56,28.56,0,0,0-8.749-19.9A29.28,29.28,0,0,0,135.1,0h-.088a28.937,28.937,0,0,0-21.24,8.688,28.814,28.814,0,0,0-8.662,19.9c-.014.3-.021.6-.021.911-.007.169-.007.338-.007.513a29,29,0,0,0,8.69,21.329,30.518,30.518,0,0,0,42.656,0,28.742,28.742,0,0,0,8.777-21.329c0-.176,0-.344-.007-.513M151.778,46.957A22.37,22.37,0,0,1,135.1,53.8a22.043,22.043,0,0,1-16.589-6.847,23.718,23.718,0,0,1-6.583-17.116c0-.114,0-.229.007-.338,0-.31.007-.614.02-.911a23.43,23.43,0,0,1,6.556-15.866A22.043,22.043,0,0,1,135.1,5.88a23.328,23.328,0,0,1,23.312,22.713c.021.3.028.608.028.911.007.143.007.284.007.426a23.363,23.363,0,0,1-6.671,17.028" transform="translate(-80.813 0)" fill="#0c1529"/>
    <path id="Path_3632" data-name="Path 3632" d="M4.045,133.937l0,0a2.741,2.741,0,1,0,.718.56v0l7.657-9.8H24.279c0-.31.007-.607.021-.911H11.971Z" transform="translate(0 -95.197)" fill="#be202e"/>
    <path id="Path_3633" data-name="Path 3633" d="M211.241,62.1a2.737,2.737,0,0,0-3.709,4l0,0-7.649,9.8H170.119V73.378H145.892V75.9H134.773c-.013.3-.019.6-.019.911h11.138v2.531h24.227V76.816h30.206l7.925-10.141.005,0a2.737,2.737,0,0,0,2.986-4.567" transform="translate(-103.629 -47.313)" fill="#be202e"/>
    <path id="Path_3634" data-name="Path 3634" d="M297.092,306.366h0Z" transform="translate(-228.471 -235.602)" fill="#231f20"/>
    <path id="Path_3635" data-name="Path 3635" d="M163.612,306.367a4.8,4.8,0,0,1,3.469,1.4,4.8,4.8,0,0,1,0,6.851,5.007,5.007,0,0,1-6.937,0,4.85,4.85,0,0,1,.014-6.851,4.75,4.75,0,0,1,3.468-1.4Zm-.014,1.367a3.232,3.232,0,0,0-2.411.972,3.677,3.677,0,0,0,0,4.921,3.457,3.457,0,0,0,4.808,0,3.415,3.415,0,0,0,.959-2.481,3.363,3.363,0,0,0-.959-2.44,3.182,3.182,0,0,0-2.369-.972Z" transform="translate(-122.07 -235.603)" fill="#0c1529"/>
    <path id="Path_3636" data-name="Path 3636" d="M211.1,315v1.34h-6.782v-.338l3.017-4.428-3.017-4.2v-.337h6.612v1.34h-4.131l2.214,3.017v.338L206.753,315Z" transform="translate(-157.121 -236.12)" fill="#0c1529"/>
    <path id="Path_3637" data-name="Path 3637" d="M250.582,308.379h-4.625v2.383h3.483v1.3h-3.483V315h4.794v1.341h-6.288v-9.3h6.118Z" transform="translate(-187.998 -236.121)" fill="#0c1529"/>
    <path id="Path_3638" data-name="Path 3638" d="M284.319,307.761a4.8,4.8,0,0,0-3.461-1.4,4.752,4.752,0,0,0-3.461,1.4,4.849,4.849,0,0,0-.014,6.852,4.751,4.751,0,0,0,3.468,1.4,4.8,4.8,0,0,0,3.469-1.4,4.8,4.8,0,0,0,0-6.852m-1.015,5.921a3.507,3.507,0,0,1-4.893.014,3.723,3.723,0,0,1,0-5.019,3.281,3.281,0,0,1,2.453-.987l-.014-.028a3.294,3.294,0,0,1,2.453,1,3.424,3.424,0,0,1,.973,2.5,3.465,3.465,0,0,1-.973,2.524" transform="translate(-212.228 -235.602)" fill="#0c1529"/>
    <rect id="Rectangle_459" data-name="Rectangle 459" width="3.651" height="1.254" transform="translate(66.832 74.866)" fill="#be202e"/>
    <path id="Path_3639" data-name="Path 3639" d="M165.836,377.592h-2.875v7.283H161.6v-7.283h-2.863v-1.223h7.1Z" transform="translate(-122.069 -289.436)" fill="#0c1529"/>
    <path id="Path_3640" data-name="Path 3640" d="M197.856,374.562a2.208,2.208,0,0,1,1.715.695,2.586,2.586,0,0,1,.631,1.819v3.956h-1.354v-3.763a1.545,1.545,0,0,0-.374-1.07,1.291,1.291,0,0,0-1.006-.412,1.39,1.39,0,0,0-1.443,1.456v3.764h-1.354v-9.669h1.354V375.3a2.326,2.326,0,0,1,1.817-.76Z" transform="translate(-149.707 -285.567)" fill="#0c1529"/>
    <path id="Path_3641" data-name="Path 3641" d="M231.149,388.04a4.046,4.046,0,0,1-.1.849h-4.719a1.92,1.92,0,0,0,.7,1.238,2.162,2.162,0,0,0,1.393.44,2.726,2.726,0,0,0,1.843-.749l.645.928a3.545,3.545,0,0,1-2.527,1.019,3.344,3.344,0,0,1-2.437-.954,3.166,3.166,0,0,1-.967-2.358,3.248,3.248,0,0,1,.954-2.36,3.124,3.124,0,0,1,2.321-.967,2.842,2.842,0,0,1,2.927,2.914Zm-2.965-1.754a1.757,1.757,0,0,0-1.173.425,1.979,1.979,0,0,0-.657,1.135h3.442a1.512,1.512,0,0,0-.477-1.135,1.648,1.648,0,0,0-1.148-.425Z" transform="translate(-173.009 -296.171)" fill="#be202e"/>
    <path id="Path_3642" data-name="Path 3642" d="M262.267,377.592h-2.875v7.283h-1.367v-7.283h-2.861v-1.223h7.1Z" transform="translate(-196.227 -289.436)" fill="#0c1529"/>
    <path id="Path_3643" data-name="Path 3643" d="M289.738,382.984H285.91L285.3,384.4h-1.456l3.752-8.649h.464l3.751,8.649h-1.469Zm-1.908-4.706-1.418,3.532h2.824Z" transform="translate(-218.285 -288.962)" fill="#0c1529"/>
    <path id="Path_3644" data-name="Path 3644" d="M111.274,348.465l-.532-.415,3.665-4.691h54.115l3.463-4.432.532.415-3.665,4.692H114.736Z" transform="translate(-85.163 -260.643)" fill="#be202e"/>
  </g>
</svg>
