<?xml version="1.0" encoding="UTF-8" standalone="no"?>
<!-- Created with Inkscape (http://www.inkscape.org/) -->

<svg
   xmlns:dc="http://purl.org/dc/elements/1.1/"
   xmlns:cc="http://creativecommons.org/ns#"
   xmlns:rdf="http://www.w3.org/1999/02/22-rdf-syntax-ns#"
   xmlns:svg="http://www.w3.org/2000/svg"
   xmlns="http://www.w3.org/2000/svg"
   xmlns:sodipodi="http://sodipodi.sourceforge.net/DTD/sodipodi-0.dtd"
   xmlns:inkscape="http://www.inkscape.org/namespaces/inkscape"
   width="85.599998mm"
   height="53.98mm"
   viewBox="0 0 303.30707 191.26771"
   id="svg2"
   version="1.1"
   inkscape:version="0.92.2 5c3e80d, 2017-08-06"
   sodipodi:docname="ravkav.svg">
  <defs
     id="defs4" />
  <sodipodi:namedview
     id="base"
     pagecolor="#ffffff"
     bordercolor="#666666"
     borderopacity="1.0"
     inkscape:pageopacity="0"
     inkscape:pageshadow="2"
     inkscape:zoom="2.8284271"
     inkscape:cx="161.85569"
     inkscape:cy="101.82176"
     inkscape:document-units="px"
     inkscape:current-layer="layer1"
     showgrid="false"
     inkscape:showpageshadow="false"
     inkscape:window-width="1680"
     inkscape:window-height="1006"
     inkscape:window-x="0"
     inkscape:window-y="0"
     inkscape:window-maximized="1"
     showguides="true"
     inkscape:guide-bbox="true">
    <sodipodi:guide
       position="111.36932,74.577667"
       orientation="0,1"
       id="guide854"
       inkscape:locked="false" />
    <sodipodi:guide
       position="96.785236,34.471456"
       orientation="0,1"
       id="guide856"
       inkscape:locked="false" />
  </sodipodi:namedview>
  <metadata
     id="metadata7">
    <rdf:RDF>
      <cc:Work
         rdf:about="">
        <dc:format>image/svg+xml</dc:format>
        <dc:type
           rdf:resource="http://purl.org/dc/dcmitype/StillImage" />
        <dc:title />
      </cc:Work>
    </rdf:RDF>
  </metadata>
  <g
     inkscape:label="Layer 1"
     inkscape:groupmode="layer"
     id="layer1"
     transform="translate(0,-861.09448)">
    <rect
       style="fill:#99a400;fill-opacity:1;fill-rule:evenodd;stroke:none;stroke-width:1px;stroke-linecap:butt;stroke-linejoin:miter;stroke-opacity:1"
       id="rect3368"
       width="303.3071"
       height="191.26772"
       x="0"
       y="861.09448"
       rx="11.25"
       ry="11.25" />
    <g
       id="g838">
      <path
         style="fill:#26136e;stroke-width:0.75302243;stroke:none"
         d="m 168.92428,979.81952 c -0.21722,-0.5647 -10.31817,-4.95934 -15.85803,-7.18774 -35.81759,-14.4076 -60.126089,-30.719 -67.507373,-45.29856 -5.336866,-10.5414 -3.650389,-16.53926 4.650501,-16.53926 4.824562,0 6.404381,1.32909 9.471848,7.96861 6.754834,14.62082 17.479514,26.17707 30.520614,32.88717 3.51586,1.80903 17.63816,6.58463 19.47192,6.58463 2.67551,0 9.19908,-8.82298 9.8475,-13.31854 1.52625,-10.58136 6.8384,-25.49365 12.44086,-34.92399 7.05878,-11.88169 16.54099,-18.77646 25.8228,-18.77646 6.92595,0 12.60437,3.6544 12.60437,8.11168 0,5.13101 -5.38096,9.15976 -12.27622,9.1913 -14.26686,0.0652 -26.35512,8.26722 -29.5621,20.05813 -1.60063,5.88494 -0.64574,11.02151 3.10125,16.68237 6.88326,10.39906 20.1895,15.472 40.61962,15.48604 15.37397,0.0105 30.42454,-3.67252 38.43187,-9.40482 7.70419,-5.5153 8.63204,-5.95281 8.63204,-4.07033 0,2.64848 -12.77401,14.98933 -20.14335,19.4603 -4.35667,2.64318 -4.89676,3.55268 -2.10969,3.55268 2.31955,0 13.42863,-3.47271 17.14014,-5.35803 5.62347,-2.85652 6.83746,-1.12891 2.28906,3.25754 -1.5531,1.4978 -8.26813,8.63004 -10.33894,9.8338 -58.48216,12.15649 -54.76651,2.81722 -77.24869,1.80348 z m -29.83393,-29.82576 c -4.91075,-2.22954 -6.73547,-7.33828 -4.70297,-13.16706 0.73569,-2.10983 0.43829,-2.97258 -3.3929,-9.84276 -8.61357,-15.44605 -10.93578,-23.66828 -8.18576,-28.98329 1.77622,-3.43292 4.85088,-4.59506 7.00336,-2.64709 2.25039,2.03658 4.34068,10.04684 5.20819,19.95854 0.94868,10.83899 2.54389,16.56649 4.61408,16.56649 1.76382,0 1.81194,-1.0159 0.33888,-7.15371 -4.61788,-19.24143 0.20137,-40.71271 10.32512,-46.0016 2.79315,-1.45921 11.09417,-1.39027 13.23599,0.10993 3.17884,2.22654 1.9196,5.48663 -6.49644,16.81889 -8.66257,11.66422 -11.19473,17.55332 -11.93482,27.75707 l -0.45073,6.21452 3.57337,3.19826 c 8.50508,7.61228 8.48185,15.44629 -0.0529,17.81605 -4.00979,1.11336 -5.43375,1.01236 -9.08251,-0.64424 z m 9.18536,-0.80231 c 2.58684,-1.59876 4.44217,-4.97436 3.99896,-7.27575 -0.41792,-2.17009 -2.3338,-1.60742 -2.99927,0.88084 -0.72289,2.70299 -2.4878,4.13835 -5.10776,4.15403 -1.05979,0.006 -2.43518,0.35164 -3.05642,0.76733 -0.97767,0.65419 -0.93301,0.90574 0.33218,1.87102 1.98464,1.5142 3.92146,1.40152 6.83231,-0.39747 z m -7.693,-9.50513 c 0.61704,-0.61704 -0.81045,-3.2896 -1.75705,-3.2896 -0.39959,0 -0.72653,0.62125 -0.72653,1.38054 0,2.03355 1.33381,3.05882 2.48358,1.90906 z m 5.79967,-1.73911 c 0,-1.65606 -1.13432,-2.62213 -2.2611,-1.92574 -0.50213,0.31033 -0.49325,0.95586 0.0265,1.927 1.00575,1.87927 2.23461,1.87858 2.23461,-0.002 z m 68.07511,3.23734 c -3.68708,-2.75081 -7.63565,-5.86395 -8.77459,-6.91809 -3.0802,-2.85084 -2.78894,-5.86227 1.03485,-10.69973 l 3.10567,-3.92897 -1.22311,-2.56489 c -1.87702,-3.93616 -1.54583,-6.1068 1.37789,-9.03051 2.43266,-2.43266 2.88804,-2.59064 7.03628,-2.44094 4.42702,0.15975 4.44227,0.15281 8.1794,-3.7244 5.32035,-5.51978 7.03316,-5.39843 15.76624,1.11703 9.61564,7.17391 10.8454,8.43955 10.8454,11.16184 0,2.85557 -0.52741,3.62725 -10.82609,15.84014 -12.77932,15.15461 -13.87147,16.18999 -17.07769,16.18999 -2.20399,0 -4.05281,-0.9791 -9.44425,-5.00147 z m 1.46093,-28.60875 c 1.49517,-1.91913 2.53709,-3.78286 2.31535,-4.14163 -0.46845,-0.75798 -3.40767,-0.86279 -5.17517,-0.18454 -1.71111,0.65662 -3.59143,4.59038 -3.03388,6.34708 0.77354,2.4372 3.02074,1.66665 5.8937,-2.02091 z"
         id="path842"
         inkscape:connector-curvature="0"
         sodipodi:nodetypes="csssssscssscssccscscsccccscssssscsccssccccccccccssccccccscscsccssssssccccc" />
      <path
         style="fill:#1b0e39;stroke:none;stroke-width:0.75302243"
         d="m 50.748523,1034.5986 c 0,-0.2443 2.918295,-6.7674 6.4851,-14.4957 7.590782,-16.4473 8.57535,-19.0225 8.57535,-22.42952 v -2.54091 h 12.42487 c 7.621371,0 12.424871,0.28561 12.424871,0.73877 0,0.40632 -1.068795,2.90617 -2.375108,5.55526 -2.958761,6 -2.61173,7.2604 1.999147,7.2604 7.102907,0 10.367317,-2.8153 14.624347,-12.61239 1.91626,-4.41005 2.21329,-5.75505 1.5462,-7.00151 -1.29057,-2.41144 -3.26839,-2.74892 -16.422433,-2.80216 -6.76483,-0.0274 -12.463522,-0.21361 -12.663754,-0.41385 -0.200232,-0.20023 0.511582,-2.09205 1.58181,-4.20405 l 1.945868,-3.83998 23.895779,0.003 c 22.33921,0.002 24.05219,0.0982 26.29689,1.46687 2.77547,1.69233 4.20358,5.64912 3.53898,9.8053 -0.23504,1.46987 -2.6843,7.24338 -5.44279,12.83007 -4.18963,8.485 -5.52052,10.5066 -8.08302,12.2776 -4.4501,3.0757 -7.29364,3.4896 -24.112769,3.5096 -13.450307,0.016 -15.261868,0.1644 -16.300588,1.3357 -0.642727,0.7248 -2.705276,4.6217 -4.583444,8.6598 l -3.414851,7.3418 H 61.71875 c -6.033625,0 -10.970227,-0.1999 -10.970227,-0.4441 z m -13.209822,-56.78564 29.059002,-0.0284 -18.314969,39.93858 H 21.360435 Z m 115.620879,39.13214 c 0,-0.4279 0.85286,-2.4611 1.89524,-4.5181 l 1.89524,-3.7401 h 10.87681 c 12.92256,0 12.21771,0.4282 16.93718,-10.29074 4.84524,-11.00461 4.06456,-12.0164 -9.0138,-11.68219 -4.3487,0.11113 -9.4873,-0.0102 -11.41911,-0.26965 l -3.51237,-0.4717 1.42502,-3.13855 c 0.78377,-1.72621 1.43247,-3.73156 1.44157,-4.45634 0.0154,-1.22544 1.60238,-1.31779 22.6446,-1.31779 17.92071,0 23.05109,0.21922 24.66149,1.05383 2.66437,1.38082 6.33469,5.53582 5.40022,6.11334 -0.40217,0.24857 -0.72789,1.70266 -0.72382,3.23133 0.005,1.77279 -1.41587,5.86435 -3.92248,11.29744 -4.43136,9.60502 -4.37663,9.89942 1.84426,9.91942 1.96727,0.01 3.57686,0.1713 3.57686,0.3666 0,0.1953 -0.82851,2.2284 -1.84112,4.5182 l -1.84111,4.163 h -30.16234 c -20.25317,0 -30.16234,-0.2556 -30.16234,-0.778 z m 85.05169,-2.4223 c 0.77697,-1.7602 3.47493,-7.6055 5.99547,-12.9896 2.52054,-5.38415 4.58367,-10.35813 4.58475,-11.05333 0.005,-3.20271 -1.73195,-3.63064 -14.73578,-3.63064 h -12.37109 v -1.89752 c 0,-1.04364 0.85141,-3.24623 1.892,-4.89465 l 1.89201,-2.99712 h 8.67681 l 25.06599,0.75302 13.05359,0.37651 2.27805,2.55202 c 2.09049,2.34189 2.24935,2.89992 1.92938,6.7772 -0.27456,3.3269 -1.67872,6.98683 -6.60459,17.21481 l -6.25591,12.9896 h -13.40667 -13.40669 z m -100.86516,-13.0383 3.19755,-7.85807 15.62801,0.73288 -3.31219,7.55039 z m 69.27807,-95.49298 c 0,-0.15637 0.593,-0.74938 1.31778,-1.31779 1.19434,-0.93666 1.22098,-0.91003 0.28432,0.28431 -0.98373,1.25434 -1.6021,1.65324 -1.6021,1.03348 z"
         id="path840"
         inkscape:connector-curvature="0"
         sodipodi:nodetypes="scscsscscscccccccccscccsscccccsccsssccccscccscsccsscccscscccccccccccccccccsccs" />
    </g>
    <text
       xml:space="preserve"
       style="font-style:normal;font-weight:normal;font-size:37.5px;line-height:1.25;font-family:sans-serif;letter-spacing:0px;word-spacing:0px;fill:#1b0e39;fill-opacity:1;stroke:none;stroke-width:0.9375"
       x="86.396355"
       y="1036.15"
       id="text848"><tspan
         sodipodi:role="line"
         x="86.396355"
         y="1036.15"
         style="font-style:italic;font-variant:normal;font-weight:bold;font-stretch:normal;font-size:16.875px;font-family:'Arial Hebrew Scholar';-inkscape-font-specification:'Arial Hebrew Scholar Bold Italic';fill:#1b0e39;fill-opacity:1;stroke-width:0.9375"
         id="tspan850">כרטיס הנסיעה של ישראל</tspan></text>
  </g>
</svg>
