<?xml version="1.0" encoding="UTF-8" standalone="no"?>
<svg
   xmlns:dc="http://purl.org/dc/elements/1.1/"
   xmlns:cc="http://creativecommons.org/ns#"
   xmlns:rdf="http://www.w3.org/1999/02/22-rdf-syntax-ns#"
   xmlns:svg="http://www.w3.org/2000/svg"
   xmlns="http://www.w3.org/2000/svg"
   xmlns:sodipodi="http://sodipodi.sourceforge.net/DTD/sodipodi-0.dtd"
   xmlns:inkscape="http://www.inkscape.org/namespaces/inkscape"
   height="256"
   viewBox="0 0 405.33334 256"
   width="405.33334"
   version="1.1"
   id="svg877"
   sodipodi:docname="touchngo.svg"
   inkscape:version="0.92.2 5c3e80d, 2017-08-06">
  <metadata
     id="metadata883">
    <rdf:RDF>
      <cc:Work
         rdf:about="">
        <dc:format>image/svg+xml</dc:format>
        <dc:type
           rdf:resource="http://purl.org/dc/dcmitype/StillImage" />
        <dc:title></dc:title>
      </cc:Work>
    </rdf:RDF>
  </metadata>
  <defs
     id="defs881" />
  <sodipodi:namedview
     pagecolor="#ffffff"
     bordercolor="#666666"
     borderopacity="1"
     objecttolerance="10"
     gridtolerance="10"
     guidetolerance="10"
     inkscape:pageopacity="0"
     inkscape:pageshadow="2"
     inkscape:window-width="1579"
     inkscape:window-height="970"
     id="namedview879"
     showgrid="true"
     inkscape:pagecheckerboard="true"
     showguides="true"
     inkscape:guide-bbox="true"
     inkscape:zoom="2.3789063"
     inkscape:cx="183.46581"
     inkscape:cy="115.77543"
     inkscape:window-x="1664"
     inkscape:window-y="851"
     inkscape:window-maximized="0"
     inkscape:current-layer="svg877">
    <inkscape:grid
       type="xygrid"
       id="grid5332"
       units="mm"
       spacingx="3.7795275"
       spacingy="3.7795275" />
  </sodipodi:namedview>
  <rect
     style="opacity:1;fill:#2a2d6c;fill-opacity:1;stroke:none;stroke-width:3;stroke-linecap:round;stroke-linejoin:round;stroke-miterlimit:4;stroke-dasharray:none;stroke-opacity:1"
     id="rect5330"
     width="405.33334"
     height="256"
     x="0"
     y="0"
     rx="15"
     ry="15" />
  <path
     style="fill:#fded06;fill-opacity:1;stroke:none"
     d="m 25.300781,35.474609 -1.070312,5.070313 c -0.5,2.8 -1.400781,7.299609 -1.800781,10.099609 L 21.6875,55.714844 h 14.5 c 13.1,0 14.5,0.17814 14.5,1.86914 0,1 -2.499219,15.8 -5.699219,33 l -5.65039,31.199216 13.341797,0.52149 c 7.219999,0 13.099609,-0.36078 13.099609,-0.80078 0.002,-0.44 2.399844,-14.19922 5.339844,-30.699222 C 74.049141,74.404687 76.7,59.903906 77,58.503906 c 0.54,-2.35 0.874,-2.40039 15.5,-2.40039 8.2,0 14.90039,-0.197454 14.90039,-0.439454 0,-0.241999 0.71961,-4.200781 1.59961,-8.800781 0.88,-4.6 1.59961,-8.959453 1.59961,-9.689453 0,-1.4 -8.99922,-1.699219 -42.699219,-1.699219 z"
     id="path5357" />
  <path
     style="fill:#fded06;fill-opacity:1;stroke:none"
     d="m 329.61914,37.378906 c -11.6,0 -11.59883,-3.12e-4 -12.29883,2.929688 -0.335,1.61 -3.73078,20.3 -7.55078,41.5 -3.82,21.199996 -6.93945,38.899216 -6.93945,39.199216 0,0.329 5.27922,0.59961 11.69922,0.59961 L 313.73047,122 c 6.45,0 11.79883,-0.12058 11.79883,-0.26758 0.032,-0.147 1.63101,-8.91 3.54101,-19.5 l 3.48047,-19.199217 12.5,-0.300781 c 11.4,-0.274 12.49844,-0.132391 12.39844,1.599609 -0.006,1.05 -1.1393,8 -2.5293,15.5 -1.38,7.459999 -2.28023,14.800779 -1.99023,16.300779 0.288,1.51 1.52976,3.4386 2.75976,4.3086 1.42,0.995 4.80977,1.57031 9.25977,1.57031 h 7.02148 l 4.5586,-25.400392 c 2.81,-15.7 4.28031,-26.498828 3.82031,-28.298828 -0.403,-1.61 -1.93992,-3.871016 -3.41992,-5.041016 -2,-2.3 -4,-2.5 -16,-2.5 -8.5,0 -15.29922,0.488172 -16.69922,1.201172 -1.28,0.658 -3.68985,2.46 -5.33985,4 -3.00999,2.8 -3.00992,2.798766 -2.41992,0.134766 0.325,-1.47 1.56,-7.950391 2.75,-14.400391 1,-6.4 2,-12.3 2,-13 10e-4,-0.985 -3.04156,-1.328125 -11.60156,-1.328125 z"
     id="path5355" />
  <path
     style="fill:#fded06;fill-opacity:1;stroke:none"
     d="m 175.89062,59.96875 c -10.09999,0 -10.60156,0.106437 -11.10156,2.398438 -0.29,1.32 -2.43953,13.101562 -4.76953,26.101562 -3.36,18.8 -4.02039,24.39844 -3.15039,26.89844 0.604,1.73 2.25039,3.90031 3.65039,4.82031 2.01,1.31 5.72,1.66992 17.5,1.66992 8.2,0 16.20078,-0.49361 17.80078,-1.09961 1.59,-0.604 4.74,-2.55937 7,-4.35937 2.26,-1.79 4.10938,-2.76969 4.10938,-2.17969 0,0.591 1.22117,2.51906 2.70117,4.28906 1.49,1.77 3.76836,3.41992 5.06836,3.66992 1.3,0.252 4.64164,0.52352 7.43164,0.60352 l 0.54883,0.52344 c 2.79,0.08 5.07031,-0.0995 5.07031,-0.39649 0,-0.297 2.40008,-13.8 5.33008,-29.999997 2.93,-16.2 5.33008,-30.098437 5.33008,-30.898437 0,-1.19 -2.20922,-1.5 -10.69922,-1.5 -8.85,0 -10.80039,0.29575 -11.40039,1.71875 -0.362,0.944 -2.16977,10.2 -4.00977,20.5 l -4,18.599604 h -14 c -14.1,0.29801 -14.10156,0.2991 -13.60156,-2.128901 0.308,-1.34 1.96164,-10.3 3.68164,-20 1.72,-9.66 2.88937,-17.900391 2.60937,-18.400391 -0.282,-0.457 -5.2796,-0.830078 -11.09961,-0.830078 z"
     id="path5353" />
  <path
     style="fill:#fded06;fill-opacity:1;stroke:none"
     d="m 280.53906,60.230469 c -11.3,0.014 -22.39922,0.457375 -24.69922,0.984375 -2.27,0.527 -5.72015,2.498906 -7.66015,4.378906 -2.3,2.23 -3.92039,5.139609 -4.65039,8.349609 -0.618,2.71 -2.3286,11.600782 -3.8086,19.800782 -1.48,8.159999 -2.68164,16.600779 -2.68164,18.800779 0,3.16 0.69325,4.57977 3.28125,6.75977 3.28,2.76 3.27961,2.75976 26.09961,2.75976 L 266.33008,122 c 12.6,0 22.90039,-0.19745 22.90039,-0.43945 0,-0.242 0.71961,-4.20078 1.59961,-8.80078 0.88,-4.6 1.59961,-8.95946 1.59961,-9.68946 0,-1.01 -3.87883,-1.33008 -15.79883,-1.33008 H 260.83008 L 262.25,94.009766 c 0.784,-4.25 1.68023,-8.80961 1.99023,-10.09961 0.555,-2.36 0.83061,-2.40039 17.09961,-2.40039 9.08,0 16.5,-0.197453 16.5,-0.439454 0,-0.242 0.71961,-4.200781 1.59961,-8.800781 0.88,-4.6 1.59961,-9.199219 1.59961,-10.199219 0,-1.71 -1.68,-1.859843 -20.5,-1.839843 z"
     id="path5351" />
  <path
     style="fill:#fded06;fill-opacity:1;stroke:none"
     d="M 123.80078 60.949219 C 100.40078 60.949219 98.899609 61.076391 96.099609 63.150391 C 94.479609 64.360391 92.210781 66.619922 91.050781 68.169922 C 89.600781 70.109922 87.839687 76.960703 85.429688 89.970703 C 83.499686 100.3707 81.899141 110.5707 81.869141 112.4707 C 81.837141 115.0107 82.712453 116.91062 84.939453 119.14062 C 88.059453 122.26063 88.059456 122.26 113.43945 122.25 L 113.48047 122.30078 C 136.78047 122.29778 139.1793 122.1247 142.2793 120.2207 C 144.1493 119.0807 146.46969 116.94047 147.42969 115.48047 C 148.39169 114.01047 150.8993 103.28047 153.0293 91.480469 C 156.1593 74.180469 156.65016 69.680469 155.66016 67.480469 C 154.98716 66.000469 153.12 63.929141 151.5 62.869141 C 148.88 61.159141 145.86078 60.949219 123.80078 60.949219 z M 108.94141 81.060547 L 120.04297 81.060547 C 126.15297 81.060547 131.14258 81.419375 131.14258 81.859375 C 131.14358 82.299375 130.37264 86.860937 129.43164 91.960938 L 127.72266 101.28906 L 117.33008 102 L 106.13086 102 L 106.87109 96.929688 C 106.87109 93.529686 106.87109 88.930859 107.87109 86.130859 L 108.94141 81.060547 z "
     id="path5349" />
  <path
     style="stroke:none;fill:#fded06;fill-opacity:1"
     d="M 326.86914 132.33398 C 301.96914 132.33398 295.96953 132.62514 292.76953 133.99414 C 290.58953 134.90514 287.4393 136.94344 285.7793 138.52344 C 284.1093 140.10344 282.10055 142.6443 281.31055 144.1543 C 280.51855 145.6743 277.65922 159.25352 274.94922 174.35352 C 270.86922 197.05352 270.22969 202.45352 271.17969 205.35352 C 271.81469 207.27352 273.46008 209.90336 274.83008 211.19336 C 276.20008 212.48336 278.71039 213.96414 280.40039 214.49414 C 282.09039 215.01714 296.90078 215.35128 313.30078 215.23828 L 313.2793 215.17383 C 341.9793 214.97583 343.28008 214.87422 347.58008 212.57422 C 350.04008 211.26422 353.26 208.5943 354.75 206.6543 C 356.23 204.7143 358.14023 200.02391 358.99023 196.25391 C 359.83823 192.47391 362.31977 179.25352 364.50977 166.85352 C 368.48977 144.25352 368.49016 144.25391 366.41016 140.25391 C 365.27016 138.05391 362.68992 135.37492 360.66992 134.29492 C 357.35992 132.51492 354.09914 132.33398 326.86914 132.33398 z M 304.85938 155.97461 L 342.66016 155.97461 L 340.65039 166.87305 C 339.65039 172.87305 338.65039 180.87305 337.65039 184.87305 L 336.44922 192.07422 L 317.2793 192.17383 L 298.38086 192.17383 L 299.73047 184.97461 C 300.47047 181.01461 301.9307 172.87305 302.9707 166.87305 L 304.85938 155.97461 z "
     id="path5344" />
  <path
     style="stroke:none;fill:#fded06;fill-opacity:1"
     d="m 232,133.10352 c -34.2,0 -37.00078,0.14031 -40.80078,2.07031 -2.23,1.14 -5.54891,3.76961 -7.37891,5.84961 -1.83,2.08 -3.79109,5.58883 -4.37109,7.79883 -0.577,2.21 -3.04977,15.20078 -5.50977,28.80078 -2.45,13.6 -4.15883,25.90039 -3.79883,27.40039 0.363,1.45 1.89993,4.10039 3.41993,5.90039 1.52,1.8 4.2789,3.71 6.1289,4.25 1.86,0.538 15.90071,1.01994 30.84571,0.64844 15.345,-0.3705 29.1457,-0.8003 31.3457,-1.4043 2.12,-0.59 5.47875,-2.17 7.46875,-3.5 1.98,-1.34 4.64992,-4.33016 5.91992,-6.66016 1.41,-2.58 3.39031,-10.30078 5.07031,-19.80078 1.51,-8.56 2.75,-15.89883 2.75,-16.29883 0,-0.408 -5.64,-0.6064 -12.5,-0.4414 l -12,1 -2.11914,12 -2.12109,12 h -19 c -19,0 -19.00039,-3.9e-4 -18.40039,-2.40039 0.297,-1.32 1.7507,-9.08118 3.2207,-17.20118 1.47,-8.16 2.67969,-15.19921 2.67969,-15.69921 0,-0.491 13.70078,-0.89258 30.30078,-0.89258 18.1,0 30.6,-0.41053 31,-1.01953 0.345,-0.559 1.50984,-5.84118 2.58984,-11.70118 l 1.95899,-10.69921 z"
     id="path5342" />
  <path
     style="fill:#ffffff;fill-opacity:1;stroke:none"
     d="m 79.619141,132.24805 -1.978516,12 c -1.09,6.6 -2.219766,12.69961 -2.509766,13.59961 -0.361,1.08 -0.180359,1.2502 0.556641,0.5332 l -0.0078,-0.0762 c 0.600999,-0.587 4.989765,-6.41039 9.759765,-12.90039 4.77,-6.53 8.660156,-12.2 8.660156,-12.5 0,-0.361 -3.260234,-0.65625 -7.240234,-0.65625 z"
     id="path5362" />
  <path
     style="fill:#ffffff;fill-opacity:1;stroke:none"
     d="m 111.62695,132.43359 c -11.3,0 -12.900388,0.2231 -13.400388,1.8711 0.8,1 -1.600781,14 -4.300781,29 -2.68,15 -5.059062,27.99961 -5.289062,29.09961 -0.391,1.7 0.742218,1.86914 12.699221,1.86914 l -1.05664,0.0312 h 13.10156 l 2.20898,-12 c 1.21,-6.6 2.75969,-15.20117 3.42969,-19.20117 l 1.2207,-7.19922 h 13.19922 c 11.9,0 13.20118,0.18814 13.20117,1.86914 0,1.03 -0.96085,6.90961 -2.13085,13.09961 -1.17,6.16 -2.12891,13.00117 -2.12891,15.20117 0,2.58 0.75691,4.76062 2.12891,6.14062 1.77,1.77 3.5596,2.12891 10.59961,2.12891 h 8.46093 l 1.10938,-5.59961 c 0.609,-3.08 2.6207,-14.1 4.4707,-24.5 1.97,-11.1 3.05867,-20.10078 2.63867,-21.80078 -0.396,-1.58 -2.17875,-4.22844 -3.96875,-5.89844 -3.25,-3.04 -3.25117,-3.04101 -18.70117,-3.04101 -12.1,0 -16.09883,0.37246 -18.79883,1.73047 -1.88,0.95099 -4.23047,2.45031 -5.23047,3.32031 -1.68,1.47 -1.76945,1.30023 -1.18945,-2.25977 l 0.625,-3.86133 z"
     id="path873" />
</svg>
