<?xml version="1.0" encoding="UTF-8" standalone="no"?>
<svg
   xmlns:dc="http://purl.org/dc/elements/1.1/"
   xmlns:cc="http://creativecommons.org/ns#"
   xmlns:rdf="http://www.w3.org/1999/02/22-rdf-syntax-ns#"
   xmlns:svg="http://www.w3.org/2000/svg"
   xmlns="http://www.w3.org/2000/svg"
   xmlns:sodipodi="http://sodipodi.sourceforge.net/DTD/sodipodi-0.dtd"
   xmlns:inkscape="http://www.inkscape.org/namespaces/inkscape"
   height="256"
   viewBox="0 0 405.33334 256"
   width="405.33334"
   version="1.1"
   id="svg877"
   sodipodi:docname="touchngo.svg"
   inkscape:version="0.92.2 5c3e80d, 2017-08-06"
   enable-background="new">
  <metadata
     id="metadata883">
    <rdf:RDF>
      <cc:Work
         rdf:about="">
        <dc:format>image/svg+xml</dc:format>
        <dc:type
           rdf:resource="http://purl.org/dc/dcmitype/StillImage" />
        <dc:title></dc:title>
      </cc:Work>
    </rdf:RDF>
  </metadata>
  <defs
     id="defs881" />
  <sodipodi:namedview
     pagecolor="#ffffff"
     bordercolor="#666666"
     borderopacity="1"
     objecttolerance="10"
     gridtolerance="10"
     guidetolerance="10"
     inkscape:pageopacity="0"
     inkscape:pageshadow="2"
     inkscape:window-width="1579"
     inkscape:window-height="970"
     id="namedview879"
     showgrid="true"
     inkscape:pagecheckerboard="true"
     showguides="true"
     inkscape:guide-bbox="true"
     inkscape:zoom="2.3789063"
     inkscape:cx="149.17306"
     inkscape:cy="158.28223"
     inkscape:window-x="1664"
     inkscape:window-y="851"
     inkscape:window-maximized="0"
     inkscape:current-layer="layer2">
    <inkscape:grid
       type="xygrid"
       id="grid5332"
       units="px"
       spacingx="1.5"
       spacingy="1.5"
       originx="0.5"
       originy="3.5" />
    <sodipodi:guide
       position="266,195.5"
       orientation="0,1"
       id="guide5476"
       inkscape:locked="false" />
    <sodipodi:guide
       position="255.5,134"
       orientation="0,1"
       id="guide5478"
       inkscape:locked="false" />
    <sodipodi:guide
       position="272,174.5"
       orientation="0,1"
       id="guide5480"
       inkscape:locked="false" />
    <sodipodi:guide
       position="270.5,155"
       orientation="0,1"
       id="guide5482"
       inkscape:locked="false" />
    <sodipodi:guide
       position="326,219.5"
       orientation="0,1"
       id="guide5484"
       inkscape:locked="false" />
  </sodipodi:namedview>
  <g
     inkscape:groupmode="layer"
     id="layer2"
     inkscape:label="bg"
     style="display:inline">
    <rect
       style="opacity:1;fill:#2a2d6c;fill-opacity:1;stroke:none;stroke-width:3;stroke-linecap:round;stroke-linejoin:round;stroke-miterlimit:4;stroke-dasharray:none;stroke-opacity:1"
       id="rect5330"
       width="405.33334"
       height="256"
       x="0"
       y="0"
       rx="15"
       ry="15" />
  </g>
  <g
     inkscape:groupmode="layer"
     id="layer3"
     inkscape:label="txt"
     style="display:inline;opacity:1">
    <g
       id="g5439"
       style="opacity:1">
      <path
         id="l1t"
         d="m 24.5,35 -3,19.5 h 30 L 39.5,122 H 65 L 77,54.5 h 30 L 110,35 Z"
         style="fill:#fded06;fill-opacity:1;stroke:none"
         inkscape:connector-curvature="0"
         inkscape:label="#l2t"
         sodipodi:nodetypes="ccccccccc" />
      <path
         id="l1h"
         d="M 317,36.5 302,122 h 22.5 L 332,81.5 h 25.5 L 353,110 c -1.5,7.5 3,12 7.5,12 H 371 l 9,-49.5 c 1.5,-6 -4.5,-12 -7.5,-12 H 347 c -4.5,0 -10.5,4.5 -12,10.5 l 6,-34.5 z"
         style="fill:#fded06;fill-opacity:1;stroke:none"
         inkscape:connector-curvature="0"
         sodipodi:nodetypes="cccccccccccccc" />
      <path
         id="l1u"
         d="m 165.5,60.5 -9,49.5 c -1.5,7.5 4.5,12 9,12 l 25.5,0 c 4.5,0 12,-4.5 15,-10.5 3,6 4.5,10.5 7.5,10.5 H 227 L 237.5,60.5 H 215 l -6,40.5 -28.5,0 7.5,-40.5 z"
         style="fill:#fded06;fill-opacity:1;stroke:none"
         inkscape:connector-curvature="0"
         sodipodi:nodetypes="ccccccccccccc" />
      <path
         id="l1c"
         d="m 257,60.5 c -4.5,0 -12,4.5 -13.5,12 L 236,110 c -1.5,7.5 4.5,12 9,12 h 43.5 l 4.5,-21 h -31.5 l 3,-19.5 h 33 l 3,-21 z"
         style="fill:#fded06;fill-opacity:1;stroke:none"
         inkscape:connector-curvature="0"
         sodipodi:nodetypes="ccccccccccc" />
      <path
         id="l1o"
         d="m 99.5,60.5 c -4.5,-10e-7 -10.5,4.5 -12,12 l -6,37.5 c -1.5,7.5 4.5,12 9,12 h 45 c 4.5,0 12,-4.5 13.5,-12 l 6,-37.5 c 1.5,-7.5 -3,-12.000001 -7.5,-12.000001 z m 9,20.999999 H 131 L 128,101 h -22.5 z"
         style="fill:#fded06;fill-opacity:1;stroke:none"
         inkscape:connector-curvature="0"
         sodipodi:nodetypes="cccccccccccccc" />
      <path
         id="l2o"
         d="m 296,132.5 c -6,0 -13.5,7.5 -15,15 L 270.5,200 c -1.5,7.5 6,15 10.5,15 h 61.5 c 7.5,0 15,-7.5 16.5,-15 l 9,-52.5 c 1.5,-7.5 -6,-15 -10.5,-15 z m 9,22.5 h 37.5 l -7.5,37.5 h -37.5 z"
         style="fill:#fded06;fill-opacity:1;stroke:none"
         inkscape:connector-curvature="0"
         sodipodi:nodetypes="cccccccccccccc" />
      <path
         id="l2g"
         d="m 195.5,132.5 c -4.5,0 -13.5,4.5 -15,12.47783 L 170,200 c -1.5,7.5 4.99681,15 10.5,15 h 60.49812 C 245,215 257,207.5 258.5,200 l 4.5,-31.5 h -24 l -4.5,24 h -39 L 203,155 h 61.5 l 4.5,-22.5 z"
         style="fill:#fded06;fill-opacity:1;stroke:none"
         inkscape:connector-curvature="0"
         sodipodi:nodetypes="cccccccccccccc" />
      <path
         id="l2quot"
         d="m 80,132.5 -4.5,25.5 18,-25.5 z"
         style="fill:#ffffff;fill-opacity:1;stroke:none"
         inkscape:connector-curvature="0"
         sodipodi:nodetypes="cccc" />
      <path
         id="l2n"
         d="M 98.623413,132.5 87.5,194 H 113 l 7.5,-39 h 27 l -6,28.5 c -1.5,7.5 3,10.5 7.5,10.5 h 13.5 l 9,-46.5 c 1.5,-7.5 -4.5,-15 -9,-15 h -27 c -4.5,0 -13.5,6 -13.5,10.5 l 1.5,-10.5 z"
         style="fill:#ffffff;fill-opacity:1;stroke:none"
         inkscape:connector-curvature="0"
         sodipodi:nodetypes="cccccccccccccc"
         inkscape:label="#l2n" />
    </g>
  </g>
</svg>
