<?xml version="1.0" ?>
<svg height="256" viewBox="0 0 405.33334 256" width="405.33334" xmlns="http://www.w3.org/2000/svg">
  <path d="M10.3,27.6h386v99.3h-386z" fill="#fded06" stroke="#fff" stroke-width=".817"/>
  <path d="m350.6,246.66 l-190.8,-18.63 27.6,-128.79 190.8,18.306z" fill="#fded06"/>
  <path d="m163,236 l-103,-13 12.8,-102 102,12z" fill="#fff"/>
  <path d="m202,256c-188,0 -188,0 -193,-3.02 -3.07,-1.95 -5.43,-4.51 -6.64,-7.2 -0.87,-4 -0.97,-12 -0.69,-119 0.29,-115 0.29,-115 3.16,-119 1.58,-1.74 4.7,-4.34 6.93,-5.45 3.9,-1.96 9.8,-2.02 191,-2.02 103,0 188,0.36 190,0.8 1.57,0.44 4.35,2.06 6.17,3.59 1.83,1.54 4.14,4.3 5.15,6.13 1.69,3.08 1.85,11.9 2.14,114 0.216,78 -0.04,112 -0.863,116 -0.644,2.6 -2.14,6.09 -3.33,7.76s-4.02,3.98 -6.29,5.14c-4,2 -7,2 -193,2zM210.28,215.4c15.6,0.051 29.4,-0.378 31.6,-0.982 2.12,-0.59 5.48,-2.17 7.47,-3.5 1.98,-1.34 4.65,-4.33 5.92,-6.66 1.41,-2.58 3.39,-10.3 5.07,-19.8 1.51,-8.56 2.75,-15.9 2.75,-16.3 0,-0.408 -5.64,-0.607 -12.5,-0.442l-12,1 -2.12,12 -2.12,12h-19c-19,0 -19,0 -18.4,-2.4 0.297,-1.32 1.75,-9.08 3.22,-17.2 1.47,-8.16 2.68,-15.2 2.68,-15.7 0,-0.491 13.7,-0.893 30.3,-0.893 18.1,0 30.6,-0.411 31,-1.02 0.345,-0.559 1.51,-5.84 2.59,-11.7l1.96,-10.7h-36.7c-34.2,0 -37,0.14 -40.8,2.07 -2.23,1.14 -5.55,3.77 -7.38,5.85s-3.79,5.59 -4.37,7.8c-0.577,2.21 -3.05,15.2 -5.51,28.8 -2.45,13.6 -4.16,25.9 -3.8,27.4 0.363,1.45 1.9,4.1 3.42,5.9s4.28,3.71 6.13,4.25c1.86,0.538 15.9,1.02 31.1,1.07zM313.28,215.174c28.7,-0.198 30,-0.3 34.3,-2.6 2.46,-1.31 5.68,-3.98 7.17,-5.92 1.48,-1.94 3.39,-6.63 4.24,-10.4 0.848,-3.78 3.33,-17 5.52,-29.4 3.98,-22.6 3.98,-22.6 1.9,-26.6 -1.14,-2.2 -3.72,-4.88 -5.74,-5.96 -3.31,-1.78 -6.57,-1.96 -33.8,-1.96 -24.9,0 -30.9,0.291 -34.1,1.66 -2.18,0.911 -5.33,2.95 -6.99,4.53 -1.67,1.58 -3.68,4.12 -4.47,5.63 -0.792,1.52 -3.65,15.1 -6.36,30.2 -4.08,22.7 -4.72,28.1 -3.77,31 0.635,1.92 2.28,4.55 3.65,5.84s3.88,2.77 5.57,3.3c1.69,0.523 16.5,0.858 32.9,0.745zM317.28,192.174h-18.9l1.35,-7.2c0.74,-3.96 2.2,-12.1 3.24,-18.1l1.89,-10.9h37.8l-2.01,10.9c-1,6 -2,14 -3,18l-1.2,7.2zM100.28,194.304h13.1l2.21,-12c1.21,-6.6 2.76,-15.2 3.43,-19.2l1.22,-7.2h13.2c11.9,0 13.2,0.189 13.2,1.87 0,1.03 -0.96,6.91 -2.13,13.1 -1.17,6.16 -2.13,13 -2.13,15.2 0,2.58 0.758,4.76 2.13,6.14 1.77,1.77 3.56,2.13 10.6,2.13h8.46l1.11,-5.6c0.609,-3.08 2.62,-14.1 4.47,-24.5 1.97,-11.1 3.06,-20.1 2.64,-21.8 -0.396,-1.58 -2.18,-4.23 -3.97,-5.9 -3.25,-3.04 -3.25,-3.04 -18.7,-3.04 -12.1,0 -16.1,0.372 -18.8,1.73 -1.88,0.951 -4.23,2.45 -5.23,3.32 -1.68,1.47 -1.77,1.3 -1.19,-2.26l0.626,-3.86h-12.9c-11.3,0 -12.9,0.222 -13.4,1.87 0.8,1 -1.6,14 -4.3,29 -2.68,15 -5.06,28 -5.29,29.1 -0.391,1.7 0.743,1.87 12.7,1.87zM75.68,158.304c0.601,-0.587 4.99,-6.41 9.76,-12.9 4.77,-6.53 8.66,-12.2 8.66,-12.5 0,-0.361 -3.26,-0.656 -7.24,-0.656h-7.24l-1.98,12c-1.09,6.6 -2.22,12.7 -2.51,13.6 -0.361,1.08 -0.18,1.25 0.557,0.533zM222.68,123.304c2.79,0.08 5.07,-0.098 5.07,-0.395s2.4,-13.8 5.33,-30 5.33,-30.1 5.33,-30.9c0,-1.19 -2.21,-1.5 -10.7,-1.5 -8.85,0 -10.8,0.297 -11.4,1.72 -0.362,0.944 -2.17,10.2 -4.01,20.5l-4,18.6h-14c-14.1,0.298 -14.1,0.298 -13.6,-2.13 0.308,-1.34 1.96,-10.3 3.68,-20 1.72,-9.66 2.89,-17.9 2.61,-18.4 -0.282,-0.457 -5.28,-0.831 -11.1,-0.831 -10.1,0 -10.6,0.108 -11.1,2.4 -0.29,1.32 -2.44,13.1 -4.77,26.1 -3.36,18.8 -4.02,24.4 -3.15,26.9 0.604,1.73 2.25,3.9 3.65,4.82 2.01,1.31 5.72,1.67 17.5,1.67 8.2,0 16.2,-0.494 17.8,-1.1 1.59,-0.604 4.74,-2.56 7,-4.36 2.26,-1.79 4.11,-2.77 4.11,-2.18 0,0.591 1.22,2.52 2.7,4.29 1.49,1.77 3.77,3.42 5.07,3.67 1.3,0.252 4.64,0.523 7.43,0.603zM52.68,122.304c7.22,0 13.1,-0.36 13.1,-0.8 0.002,-0.44 2.4,-14.2 5.34,-30.7 2.93,-16.4 5.58,-30.9 5.88,-32.3 0.54,-2.35 0.874,-2.4 15.5,-2.4 8.2,0 14.9,-0.198 14.9,-0.44s0.72,-4.2 1.6,-8.8 1.6,-8.96 1.6,-9.69c0,-1.4 -9,-1.7 -42.7,-1.7h-42.6l-1.07,5.07c-0.5,2.8 -1.4,7.3 -1.8,10.1l-0.742,5.07h14.5c13.1,0 14.5,0.179 14.5,1.87 0,1 -2.5,15.8 -5.7,33l-5.65,31.2zM113.48,122.3c23.3,-0.003 25.7,-0.176 28.8,-2.08 1.87,-1.14 4.19,-3.28 5.15,-4.74 0.962,-1.47 3.47,-12.2 5.6,-24 3.13,-17.3 3.62,-21.8 2.63,-24 -0.673,-1.48 -2.54,-3.55 -4.16,-4.61 -2.62,-1.71 -5.64,-1.92 -27.7,-1.92 -23.4,0 -24.9,0.126 -27.7,2.2 -1.62,1.21 -3.89,3.47 -5.05,5.02 -1.45,1.94 -3.21,8.79 -5.62,21.8 -1.93,10.4 -3.53,20.6 -3.56,22.5 -0.032,2.54 0.843,4.44 3.07,6.67 3.12,3.12 3.12,3.12 28.5,3.11zM117.33,102h-11.2l0.742,-5.07c0,-3.4 0,-8 1,-10.8l1.07,-5.07h11.1c6.11,0 11.1,0.36 11.1,0.8 0.001,0.44 -0.769,5 -1.71,10.1l-1.71,9.33zM266.33,122c12.6,0 22.9,-0.198 22.9,-0.44s0.72,-4.2 1.6,-8.8 1.6,-8.96 1.6,-9.69c0,-1.01 -3.88,-1.33 -15.8,-1.33h-15.8l1.42,-7.73c0.784,-4.25 1.68,-8.81 1.99,-10.1 0.555,-2.36 0.831,-2.4 17.1,-2.4 9.08,0 16.5,-0.198 16.5,-0.44s0.72,-4.2 1.6,-8.8 1.6,-9.2 1.6,-10.2c0,-1.71 -1.68,-1.86 -20.5,-1.84 -11.3,0.014 -22.4,0.457 -24.7,0.984 -2.27,0.527 -5.72,2.5 -7.66,4.38 -2.3,2.23 -3.92,5.14 -4.65,8.35 -0.618,2.71 -2.33,11.6 -3.81,19.8 -1.48,8.16 -2.68,16.6 -2.68,18.8 0,3.16 0.692,4.58 3.28,6.76 3.28,2.76 3.28,2.76 26.1,2.76zM313.73,122c6.45,0 11.8,-0.12 11.8,-0.267 0.032,-0.147 1.63,-8.91 3.54,-19.5l3.48,-19.2 12.5,-0.301c11.4,-0.274 12.5,-0.132 12.4,1.6 -0.006,1.05 -1.14,8 -2.53,15.5 -1.38,7.46 -2.28,14.8 -1.99,16.3 0.288,1.51 1.53,3.44 2.76,4.31 1.42,0.995 4.81,1.57 9.26,1.57h7.02l4.56,-25.4c2.81,-15.7 4.28,-26.5 3.82,-28.3 -0.403,-1.61 -1.94,-3.87 -3.42,-5.04 -2,-2.3 -4,-2.5 -16,-2.5 -8.5,0 -15.3,0.487 -16.7,1.2 -1.28,0.658 -3.69,2.46 -5.34,4 -3.01,2.8 -3.01,2.8 -2.42,0.136 0.325,-1.47 1.56,-7.95 2.75,-14.4 1,-6.4 2,-12.3 2,-13 0.001,-0.985 -3.04,-1.33 -11.6,-1.33 -11.6,0 -11.6,0 -12.3,2.93 -0.335,1.61 -3.73,20.3 -7.55,41.5s-6.94,38.9 -6.94,39.2c0,0.329 5.28,0.599 11.7,0.599z" fill="#2a2d6c" stroke-width="1.07"/>
</svg>
